<svg width="96" height="14" viewBox="0 0 96 14" fill="none" xmlns="http://www.w3.org/2000/svg">
<path d="M12.25 4.552C12.5767 4.496 12.8287 4.66867 13.006 5.07C13.1833 5.47133 13.272 6.13867 13.272 7.072C13.272 8.01467 13.1833 8.68667 13.006 9.088C12.8287 9.48933 12.5767 9.67133 12.25 9.634L11.872 9.578C11.8533 9.998 11.83 10.418 11.802 10.838C11.774 11.2487 11.7367 11.6593 11.69 12.07C11.634 12.63 11.4427 13.05 11.116 13.33C10.7987 13.61 10.3927 13.75 9.898 13.75C9.32867 13.75 8.876 13.5913 8.54 13.274C8.204 12.9567 8.06867 12.4807 8.134 11.846C8.32067 10.334 8.414 8.83133 8.414 7.338C8.414 5.84467 8.32533 4.37467 8.148 2.928C8.11067 2.58267 8.12933 2.284 8.204 2.032C8.27867 1.77067 8.39067 1.556 8.54 1.388C8.69867 1.22 8.89467 1.094 9.128 1.01C9.36133 0.926 9.618 0.884 9.898 0.884C10.3927 0.884 10.7987 1.024 11.116 1.304C11.4427 1.584 11.634 2.01333 11.69 2.592C11.7273 2.91867 11.7553 3.25 11.774 3.586C11.802 3.91267 11.8253 4.24867 11.844 4.594L12.25 4.552ZM4.144 13.26C3.444 13.26 2.85133 13.1153 2.366 12.826C1.88067 12.546 1.48867 12.1447 1.19 11.622C0.900667 11.0993 0.690667 10.4693 0.56 9.732C0.429333 8.99467 0.364 8.17333 0.364 7.268C0.364 6.36267 0.42 5.54133 0.532 4.804C0.653333 4.05733 0.858667 3.42733 1.148 2.914C1.43733 2.39133 1.82467 1.99 2.31 1.71C2.79533 1.42067 3.40667 1.276 4.144 1.276C4.88133 1.276 5.49267 1.42067 5.978 1.71C6.46333 1.99 6.85067 2.39133 7.14 2.914C7.42933 3.42733 7.63 4.05733 7.742 4.804C7.86333 5.54133 7.924 6.36267 7.924 7.268C7.924 8.17333 7.85867 8.99467 7.728 9.732C7.59733 10.4693 7.38267 11.0993 7.084 11.622C6.79467 12.1447 6.40733 12.546 5.922 12.826C5.43667 13.1153 4.844 13.26 4.144 13.26ZM3.906 8.178C3.906 8.234 3.92933 8.276 3.976 8.304C4.02267 8.332 4.074 8.346 4.13 8.346C4.186 8.346 4.23733 8.332 4.284 8.304C4.33067 8.276 4.354 8.234 4.354 8.178V6.372C4.354 6.316 4.33067 6.274 4.284 6.246C4.23733 6.20867 4.186 6.19 4.13 6.19C4.074 6.19 4.02267 6.20867 3.976 6.246C3.92933 6.274 3.906 6.316 3.906 6.372V8.178ZM23.8587 13.75C23.5787 13.75 23.3221 13.708 23.0887 13.624C22.8554 13.5493 22.6594 13.4327 22.5007 13.274C22.3421 13.1153 22.2254 12.9147 22.1507 12.672C22.0761 12.4387 22.0574 12.1633 22.0947 11.846C22.2721 10.334 22.3607 8.83133 22.3607 7.338C22.3607 5.84467 22.2767 4.37467 22.1087 2.928C22.0341 2.228 22.1647 1.71467 22.5007 1.388C22.8367 1.052 23.2894 0.884 23.8587 0.884C24.3534 0.884 24.7594 1.024 25.0767 1.304C25.4034 1.584 25.5947 2.01333 25.6507 2.592C25.8094 4.11333 25.8887 5.69067 25.8887 7.324C25.8887 8.95733 25.8094 10.5393 25.6507 12.07C25.5947 12.63 25.4034 13.05 25.0767 13.33C24.7594 13.61 24.3534 13.75 23.8587 13.75ZM17.6987 13.26C16.9987 13.26 16.4061 13.1153 15.9207 12.826C15.4354 12.546 15.0434 12.1447 14.7447 11.622C14.4554 11.0993 14.2454 10.4693 14.1147 9.732C13.9841 8.99467 13.9187 8.17333 13.9187 7.268C13.9187 6.36267 13.9747 5.54133 14.0867 4.804C14.2081 4.05733 14.4134 3.42733 14.7027 2.914C14.9921 2.39133 15.3794 1.99 15.8647 1.71C16.3501 1.42067 16.9614 1.276 17.6987 1.276C18.4361 1.276 19.0474 1.42067 19.5327 1.71C20.0181 1.99 20.4054 2.39133 20.6947 2.914C20.9841 3.42733 21.1847 4.05733 21.2967 4.804C21.4181 5.54133 21.4787 6.36267 21.4787 7.268C21.4787 8.17333 21.4134 8.99467 21.2827 9.732C21.1521 10.4693 20.9374 11.0993 20.6387 11.622C20.3494 12.1447 19.9621 12.546 19.4767 12.826C18.9914 13.1153 18.3987 13.26 17.6987 13.26ZM17.4887 8.178C17.4887 8.234 17.5121 8.276 17.5587 8.304C17.6054 8.332 17.6521 8.346 17.6987 8.346C17.7547 8.346 17.8061 8.332 17.8527 8.304C17.8994 8.276 17.9227 8.234 17.9227 8.178V6.372C17.9227 6.316 17.8994 6.274 17.8527 6.246C17.8061 6.20867 17.7547 6.19 17.6987 6.19C17.6521 6.19 17.6054 6.20867 17.5587 6.246C17.5121 6.274 17.4887 6.316 17.4887 6.372V8.178ZM27.3195 7.03C27.3008 6.59133 27.3288 6.20867 27.4035 5.882C27.4781 5.546 27.5855 5.266 27.7255 5.042C27.8655 4.818 28.0288 4.64533 28.2155 4.524C28.4115 4.39333 28.6215 4.30467 28.8455 4.258C29.4241 4.146 29.9281 3.94533 30.3575 3.656C30.7961 3.35733 31.0668 2.97 31.1695 2.494C31.2255 2.19533 31.3141 1.95267 31.4355 1.766C31.5568 1.57933 31.7015 1.43467 31.8695 1.332C32.0468 1.22933 32.2475 1.15933 32.4715 1.122C32.7048 1.08467 32.9615 1.066 33.2415 1.066C33.5215 1.066 33.7688 1.08467 33.9835 1.122C34.1981 1.15933 34.3848 1.22933 34.5435 1.332C34.7115 1.43467 34.8515 1.57467 34.9635 1.752C35.0848 1.92933 35.1828 2.16267 35.2575 2.452C35.3228 2.704 35.4441 2.928 35.6215 3.124C35.8081 3.32 36.0228 3.49267 36.2655 3.642C36.5081 3.79133 36.7648 3.91733 37.0355 4.02C37.3155 4.12267 37.5908 4.20667 37.8615 4.272C38.1135 4.328 38.3281 4.44467 38.5055 4.622C38.6921 4.79933 38.8368 5.014 38.9395 5.266C39.0515 5.518 39.1261 5.798 39.1635 6.106C39.2008 6.40467 39.2055 6.71267 39.1775 7.03C39.1308 7.45 39.0515 7.80467 38.9395 8.094C38.8368 8.374 38.6921 8.60267 38.5055 8.78C38.3188 8.95733 38.0901 9.08333 37.8195 9.158C37.5488 9.23267 37.2315 9.27 36.8675 9.27C36.4008 9.27 35.9995 9.24667 35.6635 9.2C35.3368 9.144 35.0661 9.03667 34.8515 8.878C34.6368 8.71933 34.4781 8.49067 34.3755 8.192C34.2821 7.884 34.2355 7.48267 34.2355 6.988C34.2355 6.40933 34.1375 5.91467 33.9415 5.504C33.7548 5.09333 33.4468 4.72467 33.0175 4.398C32.9615 4.35133 32.9008 4.33733 32.8355 4.356C32.7701 4.36533 32.7141 4.39333 32.6675 4.44C32.6301 4.47733 32.6115 4.52867 32.6115 4.594C32.6208 4.65 32.6628 4.706 32.7375 4.762C32.9055 4.874 33.0548 5 33.1855 5.14C33.3161 5.28 33.4281 5.448 33.5215 5.644C33.6148 5.83067 33.6848 6.04533 33.7315 6.288C33.7875 6.53067 33.8155 6.81533 33.8155 7.142C33.8155 7.562 33.7641 7.90733 33.6615 8.178C33.5681 8.44867 33.4001 8.66333 33.1575 8.822C32.9148 8.97133 32.5835 9.07867 32.1635 9.144C31.7528 9.2 31.2301 9.228 30.5955 9.228C30.1008 9.228 29.6528 9.19533 29.2515 9.13C28.8595 9.05533 28.5235 8.934 28.2435 8.766C27.9635 8.598 27.7441 8.374 27.5855 8.094C27.4268 7.80467 27.3381 7.45 27.3195 7.03ZM28.6635 13.358C28.1315 13.302 27.7161 13.106 27.4175 12.77C27.1188 12.4433 26.9695 11.9533 26.9695 11.3C26.9695 11.0387 27.0068 10.796 27.0815 10.572C27.1561 10.3387 27.2681 10.138 27.4175 9.97C27.5668 9.802 27.7441 9.68067 27.9495 9.606C28.1548 9.522 28.3928 9.494 28.6635 9.522C30.2221 9.68067 31.7435 9.76 33.2275 9.76C34.7208 9.76 36.2515 9.68067 37.8195 9.522C38.0901 9.494 38.3281 9.522 38.5335 9.606C38.7481 9.68067 38.9255 9.802 39.0655 9.97C39.2148 10.138 39.3268 10.3387 39.4015 10.572C39.4761 10.796 39.5135 11.0387 39.5135 11.3C39.5135 11.9533 39.3641 12.4433 39.0655 12.77C38.7761 13.106 38.3561 13.302 37.8055 13.358C36.2375 13.5167 34.7115 13.596 33.2275 13.596C31.7528 13.596 30.2315 13.5167 28.6635 13.358ZM47.0622 9.774C47.0809 9.62467 47.0995 9.45667 47.1182 9.27C47.1462 9.074 47.1742 8.84533 47.2022 8.584C46.9502 8.64933 46.6329 8.70533 46.2502 8.752C45.8675 8.78933 45.4709 8.81733 45.0602 8.836C44.6495 8.84533 44.2529 8.84533 43.8702 8.836C43.4875 8.82667 43.1795 8.808 42.9462 8.78C42.4795 8.73333 42.1155 8.57 41.8542 8.29C41.5929 8.01 41.4622 7.69733 41.4622 7.352C41.4529 6.95067 41.6069 6.64733 41.9242 6.442C42.2509 6.23667 42.7129 6.15733 43.3102 6.204C44.1409 6.26933 45.0135 6.26933 45.9282 6.204C46.8522 6.12933 47.7529 5.93333 48.6302 5.616C48.6955 5.59733 48.7375 5.56467 48.7562 5.518C48.7842 5.462 48.7889 5.41067 48.7702 5.364C48.7609 5.31733 48.7329 5.28 48.6862 5.252C48.6489 5.224 48.5975 5.224 48.5322 5.252C47.9722 5.42933 47.4449 5.56 46.9502 5.644C46.4555 5.728 45.9795 5.77933 45.5222 5.798C45.0742 5.81667 44.6355 5.80733 44.2062 5.77C43.7862 5.73267 43.3615 5.68133 42.9322 5.616C42.6522 5.56933 42.3815 5.49467 42.1202 5.392C41.8589 5.28 41.6255 5.14 41.4202 4.972C41.2242 4.804 41.0655 4.608 40.9442 4.384C40.8229 4.15067 40.7622 3.894 40.7622 3.614C40.7622 3.026 40.8975 2.564 41.1682 2.228C41.4389 1.892 41.8029 1.64 42.2602 1.472C42.7269 1.304 43.2635 1.20133 43.8702 1.164C44.4862 1.12667 45.1349 1.108 45.8162 1.108C46.4135 1.108 46.9969 1.13133 47.5662 1.178C48.1355 1.21533 48.6629 1.29933 49.1482 1.43C49.6335 1.55133 50.0582 1.72867 50.4222 1.962C50.7955 2.186 51.0802 2.48467 51.2762 2.858C51.4909 3.278 51.6355 3.78667 51.7102 4.384C51.7942 4.972 51.8269 5.58333 51.8082 6.218C51.7989 6.84333 51.7475 7.45 51.6542 8.038C51.5702 8.626 51.4675 9.12067 51.3462 9.522C51.8222 9.53133 52.1862 9.70867 52.4382 10.054C52.6902 10.3993 52.8162 10.8147 52.8162 11.3C52.8162 11.9627 52.6669 12.4573 52.3682 12.784C52.0789 13.12 51.6589 13.316 51.1082 13.372C49.5402 13.5307 48.0142 13.61 46.5302 13.61C45.0555 13.61 43.5342 13.5307 41.9662 13.372C41.4342 13.316 41.0189 13.12 40.7202 12.784C40.4215 12.4573 40.2722 11.9627 40.2722 11.3C40.2722 11.0387 40.3095 10.796 40.3842 10.572C40.4589 10.3387 40.5709 10.1427 40.7202 9.984C40.8695 9.816 41.0469 9.69467 41.2522 9.62C41.4575 9.536 41.6955 9.508 41.9662 9.536C42.8435 9.62933 43.6975 9.69467 44.5282 9.732C45.3682 9.76933 46.2129 9.78333 47.0622 9.774ZM61.9609 7.422C62.0729 6.638 62.1289 5.812 62.1289 4.944C62.1289 4.06667 62.0776 3.264 61.9749 2.536C61.9376 2.24667 61.9516 1.99933 62.0169 1.794C62.0916 1.58867 62.2036 1.42067 62.3529 1.29C62.5116 1.15 62.7029 1.04733 62.9269 0.981999C63.1603 0.916666 63.4169 0.884 63.6969 0.884C64.1916 0.884 64.5976 0.996 64.9149 1.22C65.2323 1.43467 65.4236 1.78 65.4889 2.256C65.5543 2.648 65.6009 3.07733 65.6289 3.544C65.6569 4.00133 65.6709 4.46333 65.6709 4.93C65.6709 5.39667 65.6569 5.85867 65.6289 6.316C65.6009 6.77333 65.5543 7.198 65.4889 7.59C65.4236 8.05667 65.2323 8.402 64.9149 8.626C64.5976 8.85 64.1916 8.962 63.6969 8.962C63.1276 8.962 62.6796 8.836 62.3529 8.584C62.0263 8.332 61.8956 7.94467 61.9609 7.422ZM56.0109 5.35C55.9549 5.36867 55.9176 5.40133 55.8989 5.448C55.8896 5.48533 55.8896 5.52733 55.8989 5.574C55.9176 5.62067 55.9456 5.66267 55.9829 5.7C56.0296 5.728 56.0809 5.73267 56.1369 5.714C56.5383 5.602 57.0003 5.49933 57.5229 5.406C58.0549 5.31267 58.5683 5.266 59.0629 5.266C59.8283 5.266 60.4023 5.38733 60.7849 5.63C61.1769 5.86333 61.4103 6.232 61.4849 6.736C61.5316 7.14667 61.4569 7.48733 61.2609 7.758C61.0649 8.01933 60.7896 8.22933 60.4349 8.388C60.0803 8.54667 59.6649 8.65867 59.1889 8.724C58.7223 8.78 58.2369 8.808 57.7329 8.808C56.5103 8.808 55.5676 8.682 54.9049 8.43C54.2516 8.178 53.8736 7.814 53.7709 7.338C53.6869 6.946 53.6356 6.55867 53.6169 6.176C53.6076 5.784 53.6589 5.41533 53.7709 5.07C53.8269 4.89267 53.8923 4.734 53.9669 4.594C54.0509 4.44467 54.1583 4.32333 54.2889 4.23C54.4289 4.12733 54.6016 4.048 54.8069 3.992C55.0216 3.936 55.2829 3.908 55.5909 3.908C56.0389 3.908 56.4776 3.89867 56.9069 3.88C57.3363 3.86133 57.7749 3.824 58.2229 3.768C58.2696 3.768 58.3023 3.74933 58.3209 3.712C58.3489 3.66533 58.3629 3.61867 58.3629 3.572C58.3629 3.52533 58.3489 3.48333 58.3209 3.446C58.3023 3.40867 58.2696 3.39 58.2229 3.39C57.8029 3.42733 57.3923 3.45533 56.9909 3.474C56.5989 3.49267 56.1929 3.502 55.7729 3.502C55.3903 3.502 55.0683 3.48333 54.8069 3.446C54.5549 3.39933 54.3496 3.334 54.1909 3.25C54.0416 3.166 53.9343 3.05867 53.8689 2.928C53.8036 2.788 53.7709 2.62467 53.7709 2.438C53.7709 1.654 54.4663 1.178 55.8569 1.01C56.1369 0.972666 56.3983 0.944666 56.6409 0.926C56.8836 0.907333 57.1169 0.897999 57.3409 0.897999C57.5649 0.888666 57.7889 0.888666 58.0129 0.897999C58.2369 0.907333 58.4749 0.925999 58.7269 0.954C59.0069 0.982 59.2729 1.024 59.5249 1.08C59.7769 1.12667 60.0009 1.19667 60.1969 1.29C60.4023 1.38333 60.5749 1.50467 60.7149 1.654C60.8643 1.794 60.9669 1.97133 61.0229 2.186C61.1256 2.55 61.1769 2.93267 61.1769 3.334C61.1769 3.726 61.1256 4.08067 61.0229 4.398C60.9483 4.60333 60.8083 4.74333 60.6029 4.818C60.4069 4.88333 60.1596 4.92067 59.8609 4.93C59.0489 4.93 58.3163 4.96267 57.6629 5.028C57.0189 5.084 56.4683 5.19133 56.0109 5.35ZM54.1489 12.658C54.1023 12.4807 54.0649 12.28 54.0369 12.056C54.0183 11.8413 54.0089 11.6267 54.0089 11.412C54.0089 11.188 54.0183 10.9733 54.0369 10.768C54.0556 10.5533 54.0836 10.362 54.1209 10.194C54.1863 9.90467 54.3123 9.69933 54.4989 9.578C54.6856 9.44733 54.9609 9.35867 55.3249 9.312C56.0063 9.21867 56.7296 9.14867 57.4949 9.102C58.2696 9.05533 59.0489 9.032 59.8329 9.032C60.6169 9.032 61.3916 9.05533 62.1569 9.102C62.9316 9.14867 63.6596 9.21867 64.3409 9.312C64.7143 9.35867 64.9896 9.44733 65.1669 9.578C65.3536 9.69933 65.4796 9.90467 65.5449 10.194C65.5823 10.362 65.6103 10.5533 65.6289 10.768C65.6476 10.9733 65.6569 11.188 65.6569 11.412C65.6569 11.6267 65.6429 11.8413 65.6149 12.056C65.5963 12.28 65.5589 12.4807 65.5029 12.658C65.4283 12.9567 65.3069 13.1713 65.1389 13.302C64.9803 13.4327 64.7143 13.5167 64.3409 13.554C63.6503 13.6287 62.9223 13.68 62.1569 13.708C61.3916 13.7453 60.6169 13.764 59.8329 13.764C59.0489 13.764 58.2743 13.7453 57.5089 13.708C56.7436 13.68 56.0156 13.6287 55.3249 13.554C54.9609 13.5073 54.6949 13.4187 54.5269 13.288C54.3589 13.1667 54.2329 12.9567 54.1489 12.658ZM58.9649 11.244C58.9276 11.216 58.8763 11.2113 58.8109 11.23C58.7456 11.2487 58.6943 11.2907 58.6569 11.356C58.5823 11.4867 58.6429 11.608 58.8389 11.72C59.1563 11.888 59.4876 11.972 59.8329 11.972C60.1876 11.9627 60.5283 11.8787 60.8549 11.72C60.9856 11.6267 61.0323 11.5193 60.9949 11.398C60.9763 11.342 60.9343 11.2953 60.8689 11.258C60.8129 11.2207 60.7523 11.2207 60.6869 11.258C60.4349 11.398 60.1456 11.468 59.8189 11.468C59.5016 11.4587 59.2169 11.384 58.9649 11.244ZM71.8682 7.786C71.5042 7.73933 71.2382 7.62267 71.0702 7.436C70.9022 7.24 70.7762 6.932 70.6922 6.512C70.6456 6.25067 70.6082 5.966 70.5802 5.658C70.5616 5.34067 70.5476 5.02333 70.5382 4.706C70.5382 4.38867 70.5476 4.08067 70.5662 3.782C70.5849 3.474 70.6129 3.19867 70.6502 2.956C70.7249 2.536 70.8556 2.23733 71.0422 2.06C71.2289 1.88267 71.5042 1.75667 71.8682 1.682C72.5496 1.542 73.2729 1.43933 74.0382 1.374C74.8129 1.30867 75.5922 1.276 76.3762 1.276C77.1602 1.276 77.9349 1.30867 78.7002 1.374C79.4749 1.43933 80.2029 1.542 80.8842 1.682C81.2576 1.75667 81.5329 1.88267 81.7102 2.06C81.8969 2.23733 82.0229 2.536 82.0882 2.956C82.1256 3.19867 82.1536 3.474 82.1722 3.782C82.1909 4.08067 82.2002 4.38867 82.2002 4.706C82.2002 5.02333 82.1862 5.34067 82.1582 5.658C82.1396 5.966 82.1022 6.25067 82.0462 6.512C81.9716 6.932 81.8502 7.24 81.6822 7.436C81.5236 7.62267 81.2576 7.73933 80.8842 7.786C80.1936 7.88867 79.4656 7.968 78.7002 8.024C77.9349 8.07067 77.1602 8.094 76.3762 8.094C75.5922 8.094 74.8176 8.07067 74.0522 8.024C73.2869 7.968 72.5589 7.88867 71.8682 7.786ZM75.3962 4.86C75.7136 5.028 76.0449 5.112 76.3902 5.112C76.7449 5.10267 77.0809 5.01867 77.3982 4.86C77.4636 4.82267 77.5102 4.776 77.5382 4.72C77.5662 4.65467 77.5662 4.58 77.5382 4.496C77.5196 4.44933 77.4822 4.40733 77.4262 4.37C77.3702 4.33267 77.3096 4.33267 77.2442 4.37C76.9829 4.51933 76.6936 4.594 76.3762 4.594C76.0589 4.58467 75.7789 4.50533 75.5362 4.356C75.4896 4.328 75.4289 4.32333 75.3542 4.342C75.2889 4.36067 75.2422 4.40267 75.2142 4.468C75.1302 4.61733 75.1909 4.748 75.3962 4.86ZM74.0522 11.426C73.5856 11.4073 73.1282 11.3887 72.6802 11.37C72.2416 11.342 71.8122 11.3093 71.3922 11.272C70.9909 11.2347 70.6736 11.0853 70.4402 10.824C70.2162 10.5627 70.1042 10.222 70.1042 9.802C70.1042 9.62467 70.1322 9.452 70.1882 9.284C70.2536 9.116 70.3422 8.96667 70.4542 8.836C70.5662 8.70533 70.7016 8.60733 70.8602 8.542C71.0189 8.46733 71.1962 8.43933 71.3922 8.458C72.1389 8.53267 72.9322 8.584 73.7722 8.612C74.6122 8.64 75.4616 8.654 76.3202 8.654C77.1882 8.654 78.0469 8.64 78.8962 8.612C79.7549 8.57467 80.5716 8.52333 81.3462 8.458C81.5516 8.43933 81.7336 8.46733 81.8922 8.542C82.0509 8.61667 82.1862 8.71933 82.2982 8.85C82.4102 8.97133 82.4942 9.116 82.5502 9.284C82.6156 9.452 82.6482 9.62467 82.6482 9.802C82.6482 10.222 82.5316 10.5627 82.2982 10.824C82.0742 11.0853 81.7522 11.2347 81.3322 11.272C80.9122 11.3093 80.4782 11.3373 80.0302 11.356C79.5916 11.3747 79.1436 11.3933 78.6862 11.412C78.7236 11.5893 78.7422 11.8273 78.7422 12.126C78.7422 12.518 78.7049 12.8213 78.6302 13.036C78.5556 13.26 78.4249 13.4233 78.2382 13.526C78.0609 13.638 77.8182 13.7033 77.5102 13.722C77.2116 13.7407 76.8336 13.75 76.3762 13.75C75.9189 13.75 75.5362 13.7407 75.2282 13.722C74.9202 13.7033 74.6729 13.638 74.4862 13.526C74.3089 13.4233 74.1829 13.26 74.1082 13.036C74.0336 12.8213 73.9962 12.518 73.9962 12.126C73.9962 11.8367 74.0149 11.6033 74.0522 11.426ZM93.613 13.75C93.333 13.75 93.0763 13.708 92.843 13.624C92.6096 13.5493 92.4136 13.4327 92.255 13.274C92.0963 13.1153 91.9796 12.9147 91.905 12.672C91.8303 12.4387 91.8116 12.1633 91.849 11.846C92.0263 10.334 92.115 8.83133 92.115 7.338C92.115 5.84467 92.031 4.37467 91.863 2.928C91.7883 2.228 91.919 1.71467 92.255 1.388C92.591 1.052 93.0436 0.884 93.613 0.884C94.1076 0.884 94.5136 1.024 94.831 1.304C95.1576 1.584 95.349 2.01333 95.405 2.592C95.5636 4.11333 95.643 5.69067 95.643 7.324C95.643 8.95733 95.5636 10.5393 95.405 12.07C95.349 12.63 95.1576 13.05 94.831 13.33C94.5136 13.61 94.1076 13.75 93.613 13.75ZM86.935 4.076C87.2896 3.95467 87.6536 3.95467 88.027 4.076V3.32C88.027 2.96533 88.0503 2.662 88.097 2.41C88.153 2.158 88.2416 1.95267 88.363 1.794C88.4936 1.63533 88.6616 1.51867 88.867 1.444C89.0816 1.36933 89.3476 1.332 89.665 1.332C90.2063 1.332 90.603 1.514 90.855 1.878C91.1163 2.242 91.2843 2.85333 91.359 3.712C91.3963 4.22533 91.4243 4.77133 91.443 5.35C91.471 5.91933 91.485 6.49333 91.485 7.072C91.485 7.64133 91.4756 8.20133 91.457 8.752C91.4383 9.29333 91.4056 9.802 91.359 10.278C91.191 11.7713 90.6683 12.616 89.791 12.812C88.9883 13.0267 88.2183 13.134 87.481 13.134C86.7436 13.134 85.969 13.0267 85.157 12.812C84.7276 12.7093 84.3776 12.4433 84.107 12.014C83.8456 11.594 83.6776 11.0153 83.603 10.278C83.547 9.802 83.5096 9.29333 83.491 8.752C83.4723 8.20133 83.463 7.64133 83.463 7.072C83.463 6.49333 83.4723 5.91933 83.491 5.35C83.519 4.77133 83.5563 4.22533 83.603 3.712C83.6403 3.264 83.6963 2.89067 83.771 2.592C83.855 2.284 83.967 2.03667 84.107 1.85C84.247 1.66333 84.4243 1.53267 84.639 1.458C84.8536 1.374 85.115 1.332 85.423 1.332C85.731 1.332 85.983 1.374 86.179 1.458C86.375 1.53267 86.529 1.654 86.641 1.822C86.753 1.99 86.8276 2.2 86.865 2.452C86.9116 2.69467 86.935 2.984 86.935 3.32V4.076ZM86.389 7.828C86.7436 7.828 87.089 7.86533 87.425 7.94C87.761 8.00533 88.083 8.122 88.391 8.29C88.447 8.318 88.4983 8.318 88.545 8.29C88.601 8.25267 88.6383 8.206 88.657 8.15C88.685 8.094 88.6943 8.03333 88.685 7.968C88.6756 7.90267 88.6336 7.84667 88.559 7.8C88.2323 7.61333 87.887 7.478 87.523 7.394C87.159 7.30067 86.8043 7.27733 86.459 7.324C86.3843 7.33333 86.3236 7.366 86.277 7.422C86.2396 7.46867 86.2163 7.52467 86.207 7.59C86.207 7.646 86.221 7.702 86.249 7.758C86.277 7.80467 86.3236 7.828 86.389 7.828Z" fill="#DA4198"/>
</svg>
